<svg xmlns="http://www.w3.org/2000/svg" viewBox="0 0 160 160"><defs><linearGradient id="gradient-wwmark" x1="91.722%" x2="10.978%" y1="26.562%" y2="75.43%"><stop stop-color="#4178BE" offset="0%"></stop><stop stop-color="#00B4A0" offset="100%"></stop></linearGradient></defs><path fill="url(#gradient-wwmark)" fill-rule="evenodd" d="M100 179.998c-21.368 0-41.458-8.32-56.568-23.431a4.705 4.705 0 1 1 6.655-6.654c13.332 13.331 31.058 20.673 49.913 20.673 38.922 0 70.588-31.666 70.588-70.587v-.393c0-3.73-.67-12.406-6.878-12.406-4.046 0-6.357 6.164-9.177 14.872-3.005 9.277-6.413 19.789-16.307 19.789-13.146 0-15.79-17.245-18.348-33.921-1.27-8.267-3.629-23.655-7.41-23.877-1.596-.064-3.366 3.261-4.645 8.753-1.692 7.269-2.418 17.397-3.119 27.19l-.174 2.441c-1.542 21.777-2.999 42.346-17.212 42.53h-.167c-11.717 0-14.135-16.127-16.474-31.725-1.557-10.38-3.91-26.064-8.904-26.064-3.05 0-5.436 7.362-7.353 13.278-3.086 9.526-6.928 21.382-18.131 21.382-4.937 0-9.253-2.224-12.15-6.263-2.747-3.83-4.139-9.062-4.139-15.553v-.099C20.036 55.851 55.91 20 100 20c21.314 0 41.368 8.284 56.465 23.327a4.706 4.706 0 0 1-6.643 6.667C136.501 36.722 118.807 29.412 100 29.412c-38.922 0-70.588 31.665-70.588 70.587v.096c.007 3.763.704 12.342 6.877 12.342 4.046 0 6.357-6.164 9.177-14.873 3.006-9.275 6.413-19.788 16.307-19.788 13.1 0 15.698 17.325 18.211 34.08 1.243 8.29 3.556 23.71 7.195 23.71h.017c5.559-.071 6.996-20.36 7.947-33.783l.173-2.448c.727-10.159 1.48-20.663 3.34-28.654 2.57-11.031 7.404-16.444 14.36-16.013 11.382.665 13.705 15.811 16.164 31.846 1.585 10.327 3.979 25.935 9.046 25.935 3.05 0 5.436-7.362 7.353-13.278 3.087-9.527 6.928-21.383 18.131-21.383 4.938 0 9.253 2.226 12.15 6.266 2.747 3.828 4.14 9.061 4.14 15.552v.393c0 44.111-35.888 80-80 80" transform="translate(-20 -20)"></path></svg>